<svg width="60" height="60" viewBox="0 0 60 60" fill="none" xmlns="http://www.w3.org/2000/svg">
<g id="google">
<path id="Vector" d="M53.375 27.75H30.45V34.575H46.725C45.9 44.1 37.975 48.175 30.475 48.175C20.9 48.175 12.5 40.625 12.5 30C12.5 19.75 20.5 11.825 30.5 11.825C38.225 11.825 42.75 16.75 42.75 16.75L47.5 11.8C47.5 11.8 41.4 5 30.25 5C16.05 5 5.075 17 5.075 30C5.075 42.625 15.4 55 30.625 55C44 55 53.75 45.825 53.75 32.275C53.75 29.4 53.375 27.75 53.375 27.75Z" fill="white"/>
</g>
</svg>
