<svg width="45" height="45" viewBox="0 0 45 45" fill="none" xmlns="http://www.w3.org/2000/svg">
<g id="google-plus">
<path id="Vector" d="M43.125 20.625H39.375V16.875H35.625V20.625H31.875V24.375H35.625V28.125H39.375V24.375H43.125M15 20.625V25.125H22.5C22.125 27 20.25 30.75 15 30.75C10.5 30.75 6.9375 27 6.9375 22.5C6.9375 18 10.5 14.25 15 14.25C17.625 14.25 19.3125 15.375 20.25 16.3125L23.8125 12.9375C21.5625 10.6875 18.5625 9.375 15 9.375C7.6875 9.375 1.875 15.1875 1.875 22.5C1.875 29.8125 7.6875 35.625 15 35.625C22.5 35.625 27.5625 30.375 27.5625 22.875C27.5625 21.9375 27.5625 21.375 27.375 20.625H15Z" fill="black"/>
</g>
</svg>
